<mxfile host="app.diagrams.net" agent="Mozilla/5.0 (Windows NT 10.0; Win64; x64; rv:143.0) Gecko/20100101 Firefox/143.0" version="28.2.3">
  <diagram name="Page-1" id="4C_1R8DA6lt5_G3mTWeX">
    <mxGraphModel dx="1412" dy="937" grid="1" gridSize="10" guides="1" tooltips="1" connect="1" arrows="1" fold="1" page="1" pageScale="1" pageWidth="827" pageHeight="1169" math="0" shadow="0">
      <root>
        <mxCell id="0" />
        <mxCell id="1" parent="0" />
        <mxCell id="ktWdpoy6ekmFQME5NpO9-1" value="Generic Concept" style="whiteSpace=wrap;html=1;shape=mxgraph.basic.cloud_callout;rounded=1;" parent="1" vertex="1">
          <mxGeometry x="40" y="200" width="160" height="120" as="geometry" />
        </mxCell>
        <mxCell id="ktWdpoy6ekmFQME5NpO9-2" value="" style="shape=flexArrow;endArrow=classic;html=1;rounded=1;exitX=0.993;exitY=0.4;exitDx=0;exitDy=0;exitPerimeter=0;entryX=-0.022;entryY=0.483;entryDx=0;entryDy=0;entryPerimeter=0;" parent="1" source="ktWdpoy6ekmFQME5NpO9-1" target="ktWdpoy6ekmFQME5NpO9-15" edge="1">
          <mxGeometry width="50" height="50" relative="1" as="geometry">
            <mxPoint x="380" y="420" as="sourcePoint" />
            <mxPoint x="280" y="248" as="targetPoint" />
          </mxGeometry>
        </mxCell>
        <mxCell id="ktWdpoy6ekmFQME5NpO9-7" value="" style="edgeStyle=orthogonalEdgeStyle;rounded=1;orthogonalLoop=1;jettySize=auto;html=1;" parent="1" target="ktWdpoy6ekmFQME5NpO9-6" edge="1">
          <mxGeometry relative="1" as="geometry">
            <mxPoint x="380" y="250" as="sourcePoint" />
          </mxGeometry>
        </mxCell>
        <mxCell id="ktWdpoy6ekmFQME5NpO9-11" value="" style="edgeStyle=orthogonalEdgeStyle;rounded=1;orthogonalLoop=1;jettySize=auto;html=1;" parent="1" source="ktWdpoy6ekmFQME5NpO9-6" edge="1">
          <mxGeometry relative="1" as="geometry">
            <mxPoint x="600" y="250" as="targetPoint" />
          </mxGeometry>
        </mxCell>
        <mxCell id="ktWdpoy6ekmFQME5NpO9-6" value="Mission Statement Generation" style="whiteSpace=wrap;html=1;rounded=1;" parent="1" vertex="1">
          <mxGeometry x="430" y="220" width="120" height="60" as="geometry" />
        </mxCell>
        <mxCell id="ktWdpoy6ekmFQME5NpO9-8" value="Transform the concept from a generic idea to a list of requirements following the MoSCoW structure" style="text;html=1;strokeColor=#666666;fillColor=#f5f5f5;align=center;verticalAlign=middle;whiteSpace=wrap;rounded=1;fontColor=#333333;" parent="1" vertex="1">
          <mxGeometry x="430" y="280" width="120" height="90" as="geometry" />
        </mxCell>
        <mxCell id="pupUJ_Dt1POx6-zmbTgZ-7" style="edgeStyle=none;curved=0;rounded=0;orthogonalLoop=1;jettySize=auto;html=1;entryX=0;entryY=0.5;entryDx=0;entryDy=0;fontSize=12;startSize=8;endSize=8;" edge="1" parent="1" source="ktWdpoy6ekmFQME5NpO9-14" target="ktWdpoy6ekmFQME5NpO9-20">
          <mxGeometry relative="1" as="geometry">
            <Array as="points">
              <mxPoint x="630" y="170" />
              <mxPoint x="720" y="170" />
              <mxPoint x="720" y="250" />
            </Array>
          </mxGeometry>
        </mxCell>
        <mxCell id="ktWdpoy6ekmFQME5NpO9-14" value="&lt;div&gt;Define&amp;nbsp;&lt;/div&gt;&lt;div&gt;Capabilities of SotA AS&lt;/div&gt;" style="shape=parallelogram;perimeter=parallelogramPerimeter;whiteSpace=wrap;html=1;fixedSize=1;rounded=1;" parent="1" vertex="1">
          <mxGeometry x="570" y="20" width="120" height="60" as="geometry" />
        </mxCell>
        <mxCell id="ktWdpoy6ekmFQME5NpO9-15" value="SotA comparison" style="rounded=1;whiteSpace=wrap;html=1;" parent="1" vertex="1">
          <mxGeometry x="270" y="220" width="110" height="60" as="geometry" />
        </mxCell>
        <mxCell id="ktWdpoy6ekmFQME5NpO9-16" value="&lt;div style=&quot;font-size: 11px; line-height: 90%;&quot;&gt;&lt;font style=&quot;font-size: 11px;&quot;&gt;Has the proposed System been done before?&lt;/font&gt;&lt;/div&gt;&lt;div style=&quot;font-size: 11px; line-height: 90%;&quot;&gt;&lt;font style=&quot;font-size: 11px;&quot;&gt;Do similar systems exist?&lt;/font&gt;&lt;/div&gt;&lt;div style=&quot;font-size: 11px; line-height: 90%;&quot;&gt;&lt;font style=&quot;font-size: 11px;&quot;&gt;Within this field or others?&lt;br&gt;&lt;/font&gt;&lt;/div&gt;" style="rounded=1;whiteSpace=wrap;html=1;" parent="1" vertex="1">
          <mxGeometry x="276" y="280" width="100" height="80" as="geometry" />
        </mxCell>
        <mxCell id="pupUJ_Dt1POx6-zmbTgZ-1" style="edgeStyle=none;curved=1;rounded=1;orthogonalLoop=1;jettySize=auto;html=1;entryX=0;entryY=0.5;entryDx=0;entryDy=0;fontSize=12;startSize=8;endSize=8;" edge="1" parent="1" source="ktWdpoy6ekmFQME5NpO9-17" target="ktWdpoy6ekmFQME5NpO9-20">
          <mxGeometry relative="1" as="geometry" />
        </mxCell>
        <mxCell id="ktWdpoy6ekmFQME5NpO9-17" value="Operating Area Determination" style="rounded=1;whiteSpace=wrap;html=1;" parent="1" vertex="1">
          <mxGeometry x="600" y="220" width="120" height="60" as="geometry" />
        </mxCell>
        <mxCell id="pupUJ_Dt1POx6-zmbTgZ-9" style="edgeStyle=none;curved=0;rounded=0;orthogonalLoop=1;jettySize=auto;html=1;entryX=0;entryY=0.5;entryDx=0;entryDy=0;fontSize=12;startSize=8;endSize=8;" edge="1" parent="1" source="ktWdpoy6ekmFQME5NpO9-18" target="ktWdpoy6ekmFQME5NpO9-20">
          <mxGeometry relative="1" as="geometry">
            <Array as="points">
              <mxPoint x="1010" y="160" />
              <mxPoint x="1040" y="160" />
              <mxPoint x="1040" y="250" />
            </Array>
          </mxGeometry>
        </mxCell>
        <mxCell id="ktWdpoy6ekmFQME5NpO9-18" value="Define Area of Operation" style="shape=parallelogram;perimeter=parallelogramPerimeter;whiteSpace=wrap;html=1;fixedSize=1;rounded=1;" parent="1" vertex="1">
          <mxGeometry x="950" y="20" width="120" height="60" as="geometry" />
        </mxCell>
        <mxCell id="ktWdpoy6ekmFQME5NpO9-20" value="Define Operating Scenarios" style="shape=process;whiteSpace=wrap;html=1;backgroundOutline=1;rounded=1;" parent="1" vertex="1">
          <mxGeometry x="1060" y="220" width="120" height="60" as="geometry" />
        </mxCell>
        <mxCell id="ktWdpoy6ekmFQME5NpO9-24" value="Create intial ODM" style="shape=parallelogram;perimeter=parallelogramPerimeter;whiteSpace=wrap;html=1;fixedSize=1;rounded=1;" parent="1" vertex="1">
          <mxGeometry x="700" y="20" width="120" height="60" as="geometry" />
        </mxCell>
        <mxCell id="pupUJ_Dt1POx6-zmbTgZ-8" style="edgeStyle=none;curved=0;rounded=0;orthogonalLoop=1;jettySize=auto;html=1;exitX=0.5;exitY=1;exitDx=0;exitDy=0;entryX=0;entryY=0.5;entryDx=0;entryDy=0;fontSize=12;startSize=8;endSize=8;" edge="1" parent="1" source="ktWdpoy6ekmFQME5NpO9-26" target="ktWdpoy6ekmFQME5NpO9-20">
          <mxGeometry relative="1" as="geometry">
            <Array as="points">
              <mxPoint x="887" y="160" />
              <mxPoint x="930" y="160" />
              <mxPoint x="930" y="250" />
            </Array>
          </mxGeometry>
        </mxCell>
        <mxCell id="ktWdpoy6ekmFQME5NpO9-26" value="Create SOC" style="shape=parallelogram;perimeter=parallelogramPerimeter;whiteSpace=wrap;html=1;fixedSize=1;rounded=1;" parent="1" vertex="1">
          <mxGeometry x="827" y="20" width="120" height="60" as="geometry" />
        </mxCell>
        <mxCell id="pupUJ_Dt1POx6-zmbTgZ-4" value="" style="endArrow=classic;html=1;rounded=0;fontSize=12;startSize=8;endSize=8;curved=0;exitX=0.5;exitY=1;exitDx=0;exitDy=0;entryX=0;entryY=0.5;entryDx=0;entryDy=0;" edge="1" parent="1" source="ktWdpoy6ekmFQME5NpO9-24" target="ktWdpoy6ekmFQME5NpO9-20">
          <mxGeometry width="50" height="50" relative="1" as="geometry">
            <mxPoint x="840" y="210" as="sourcePoint" />
            <mxPoint x="890" y="160" as="targetPoint" />
            <Array as="points">
              <mxPoint x="760" y="160" />
              <mxPoint x="830" y="160" />
              <mxPoint x="830" y="250" />
            </Array>
          </mxGeometry>
        </mxCell>
        <mxCell id="pupUJ_Dt1POx6-zmbTgZ-10" value="Legend" style="swimlane;whiteSpace=wrap;html=1;rounded=1;" vertex="1" parent="1">
          <mxGeometry x="225" y="10" width="200" height="200" as="geometry" />
        </mxCell>
        <mxCell id="pupUJ_Dt1POx6-zmbTgZ-11" value="Rounded Rectangle" style="rounded=1;whiteSpace=wrap;html=1;" vertex="1" parent="pupUJ_Dt1POx6-zmbTgZ-10">
          <mxGeometry x="5" y="30" width="75" height="40" as="geometry" />
        </mxCell>
        <mxCell id="pupUJ_Dt1POx6-zmbTgZ-12" value="A document to produce" style="text;html=1;align=center;verticalAlign=middle;whiteSpace=wrap;rounded=0;" vertex="1" parent="pupUJ_Dt1POx6-zmbTgZ-10">
          <mxGeometry x="90" y="35" width="99" height="30" as="geometry" />
        </mxCell>
        <mxCell id="pupUJ_Dt1POx6-zmbTgZ-14" value="Parallelogram" style="shape=parallelogram;perimeter=parallelogramPerimeter;whiteSpace=wrap;html=1;fixedSize=1;rounded=1;" vertex="1" parent="pupUJ_Dt1POx6-zmbTgZ-10">
          <mxGeometry y="80" width="105" height="40" as="geometry" />
        </mxCell>
        <mxCell id="pupUJ_Dt1POx6-zmbTgZ-15" value="A document which is given" style="text;html=1;align=center;verticalAlign=middle;whiteSpace=wrap;rounded=0;" vertex="1" parent="pupUJ_Dt1POx6-zmbTgZ-10">
          <mxGeometry x="99" y="85" width="90" height="30" as="geometry" />
        </mxCell>
        <mxCell id="pupUJ_Dt1POx6-zmbTgZ-16" value="Sharp within rounded rectangle" style="shape=process;whiteSpace=wrap;html=1;backgroundOutline=1;rounded=1;" vertex="1" parent="pupUJ_Dt1POx6-zmbTgZ-10">
          <mxGeometry x="5" y="130" width="85" height="60" as="geometry" />
        </mxCell>
        <mxCell id="pupUJ_Dt1POx6-zmbTgZ-17" value="A process" style="text;html=1;align=center;verticalAlign=middle;whiteSpace=wrap;rounded=0;" vertex="1" parent="pupUJ_Dt1POx6-zmbTgZ-10">
          <mxGeometry x="114" y="140" width="60" height="30" as="geometry" />
        </mxCell>
      </root>
    </mxGraphModel>
  </diagram>
</mxfile>
